<?xml version="1.0" standalone="no"?>
<!DOCTYPE svg PUBLIC "-//W3C//DTD SVG 20010904//EN"
 "http://www.w3.org/TR/2001/REC-SVG-20010904/DTD/svg10.dtd">
<svg version="1.0" xmlns="http://www.w3.org/2000/svg"
 width="364.000000pt" height="222.000000pt" viewBox="0 0 364.000000 222.000000"
 preserveAspectRatio="xMidYMid meet">
<metadata>
Created by potrace 1.12, written by Peter Selinger 2001-2015
</metadata>
<g transform="translate(0.000000,222.000000) scale(0.100000,-0.100000)"
fill="#000000" stroke="none">
<path d="M992 187 c-19 -20 -22 -35 -22 -105 l0 -82 50 0 50 0 0 83 c0 70 -3
87 -20 105 -26 28 -31 27 -58 -1z"/>
<path d="M1323 190 l-33 -20 0 -85 0 -85 70 0 70 0 0 74 c0 90 -4 103 -41 121
-34 18 -28 19 -66 -5z"/>
<path d="M1620 190 c-17 -17 -20 -33 -20 -105 l0 -85 49 0 48 0 2 78 c2 66 -1
82 -19 105 -26 32 -34 33 -60 7z"/>
</g>
</svg>
